<?xml version="1.0" standalone="no"?>
<!DOCTYPE svg PUBLIC "-//W3C//DTD SVG 20010904//EN"
 "http://www.w3.org/TR/2001/REC-SVG-20010904/DTD/svg10.dtd">
<svg version="1.0" xmlns="http://www.w3.org/2000/svg"
 width="640.000000pt" height="640.000000pt" viewBox="0 0 640.000000 640.000000"
 preserveAspectRatio="xMidYMid meet">
<metadata>
Created by potrace 1.14, written by Peter Selinger 2001-2017
</metadata>
<g transform="translate(0.000000,640.000000) scale(0.100000,-0.100000)"
fill="#000000" stroke="none">
<path d="M2685 5564 c-1139 -91 -2074 -653 -2469 -1484 -546 -1152 143 -2435
1571 -2924 134 -45 370 -108 453 -120 40 -6 35 -3 -45 32 -704 304 -1189 785
-1379 1365 -63 190 -80 306 -80 527 0 221 17 337 80 527 311 952 1433 1623
2714 1623 548 0 1064 -118 1530 -351 l175 -87 -65 60 c-486 453 -1080 720
-1810 813 -120 16 -562 28 -675 19z"/>
<path d="M3130 4736 c-119 -18 -213 -39 -315 -73 -776 -254 -1304 -1013 -1304
-1873 0 -1047 782 -1915 1764 -1956 l120 -5 -90 25 c-481 130 -869 401 -1126
785 -128 189 -214 400 -261 633 -32 163 -32 453 0 616 202 1011 1232 1652
2312 1441 103 -21 278 -72 369 -110 l46 -19 -78 74 c-238 226 -570 390 -907
451 -128 23 -406 28 -530 11z"/>
<path d="M5366 4580 c-97 -16 -206 -49 -291 -89 -114 -55 -138 -76 -50 -46
268 91 609 84 861 -19 163 -67 290 -174 347 -293 28 -60 32 -78 32 -153 0 -75
-4 -93 -32 -153 -57 -119 -184 -226 -347 -293 -287 -117 -688 -108 -958 20
-27 13 -48 22 -48 20 0 -2 29 -24 64 -49 85 -60 197 -111 315 -143 85 -22 116
-25 266 -26 143 0 184 3 258 22 184 46 340 132 440 243 311 343 104 800 -422
936 -108 28 -329 39 -435 23z"/>
<path d="M5395 4281 c-30 -5 -7 -8 90 -13 246 -13 433 -94 486 -212 81 -179
-132 -345 -466 -362 -174 -10 -360 28 -458 92 -54 35 -56 24 -5 -21 59 -50
160 -100 260 -127 69 -19 108 -23 238 -23 130 0 169 4 238 23 163 44 280 121
326 214 66 132 0 264 -175 353 -107 55 -204 76 -359 80 -74 2 -153 0 -175 -4z"/>
<path d="M5318 4263 c6 -2 18 -2 25 0 6 3 1 5 -13 5 -14 0 -19 -2 -12 -5z"/>
<path d="M5020 4115 c-26 -32 13 -81 48 -59 34 22 22 74 -18 74 -10 0 -23 -7
-30 -15z"/>
<path d="M3647 3934 c-346 -54 -662 -266 -874 -586 -107 -163 -181 -349 -219
-553 -26 -139 -26 -411 0 -550 71 -384 276 -713 576 -927 202 -144 464 -228
710 -228 219 0 475 74 645 185 22 15 33 24 23 21 -52 -16 -239 -28 -353 -23
-668 28 -1218 493 -1311 1107 -90 599 278 1173 889 1389 130 46 273 72 437 80
l145 7 -99 32 c-180 60 -380 76 -569 46z"/>
<path d="M4393 3615 c-205 -37 -388 -138 -539 -298 -454 -478 -389 -1288 135
-1676 342 -254 800 -254 1142 0 412 305 554 883 338 1375 -23 52 -43 93 -44
92 -2 -2 6 -43 17 -93 30 -134 31 -450 1 -585 -53 -237 -137 -403 -273 -541
-237 -241 -523 -241 -760 0 -136 138 -220 304 -273 541 -30 137 -30 443 0 580
52 233 136 402 268 538 44 45 76 82 70 81 -5 0 -42 -7 -82 -14z"/>
<path d="M4647 3452 c-22 -24 -21 -45 1 -65 24 -22 45 -21 65 1 22 24 21 45
-1 65 -24 22 -45 21 -65 -1z"/>
<path d="M4942 3334 c47 -53 88 -214 88 -344 0 -232 -94 -420 -210 -420 -86 0
-157 94 -195 260 l-15 65 6 -79 c10 -148 72 -293 150 -352 31 -24 47 -29 94
-29 47 0 63 5 94 29 51 38 91 104 123 201 24 72 27 96 27 230 1 131 -2 160
-23 225 -37 118 -83 195 -135 222 -20 10 -20 10 -4 -8z"/>
<path d="M5175 3325 c3 -16 8 -102 11 -190 15 -377 -68 -709 -211 -844 -87
-82 -163 -82 -250 0 -139 131 -224 461 -213 825 4 149 -4 139 -27 -34 -68
-512 117 -1012 375 -1012 183 0 340 259 380 629 22 194 0 445 -50 596 -11 33
-18 47 -15 30z"/>
</g>
</svg>
